<?xml version="1.0" encoding="UTF-8" standalone="no"?>
<svg
   width="123px"
   height="123px"
   viewBox="0 0 123 123"
   version="1.1"
   id="svg21"
   sodipodi:docname="link.svg"
   inkscape:version="1.2.2 (732a01da63, 2022-12-09, custom)"
   xmlns:inkscape="http://www.inkscape.org/namespaces/inkscape"
   xmlns:sodipodi="http://sodipodi.sourceforge.net/DTD/sodipodi-0.dtd"
   xmlns="http://www.w3.org/2000/svg"
   xmlns:svg="http://www.w3.org/2000/svg">
  <defs
     id="defs25" />
  <sodipodi:namedview
     id="namedview23"
     pagecolor="#ffffff"
     bordercolor="#000000"
     borderopacity="0.25"
     inkscape:showpageshadow="2"
     inkscape:pageopacity="0.0"
     inkscape:pagecheckerboard="0"
     inkscape:deskcolor="#d1d1d1"
     showgrid="false"
     inkscape:zoom="6.9105691"
     inkscape:cx="61.5"
     inkscape:cy="61.572353"
     inkscape:window-width="1920"
     inkscape:window-height="1016"
     inkscape:window-x="0"
     inkscape:window-y="27"
     inkscape:window-maximized="1"
     inkscape:current-layer="surface1" />
  <g
     id="surface1">
    <path
       style="stroke:none;fill-rule:nonzero;fill:#ffffff;fill-opacity:1"
       d="M 47.613281 113.824219 C 37.023438 124.414062 19.777344 124.414062 9.175781 113.8125 C -1.414062 103.222656 -1.414062 85.976562 9.175781 75.386719 L 36.394531 48.167969 C 46.984375 37.578125 64.230469 37.578125 74.832031 48.179688 C 75.117188 48.460938 75.398438 48.757812 75.667969 49.050781 C 75.828125 49.1875 75.976562 49.324219 76.136719 49.46875 C 76.566406 49.902344 76.925781 50.367188 77.207031 50.871094 C 77.242188 50.921875 77.28125 50.957031 77.316406 51.007812 C 77.304688 51.019531 77.304688 51.019531 77.292969 51.019531 C 78.597656 53.480469 78.214844 56.605469 76.136719 58.671875 C 74.046875 60.761719 70.898438 61.132812 68.4375 59.789062 C 68.265625 59.976562 66.554688 58.277344 65.65625 57.367188 L 65.644531 57.355469 C 60.109375 51.820312 51.179688 51.78125 45.644531 57.304688 L 18.375 84.585938 C 12.839844 90.121094 12.839844 99.089844 18.375 104.625 L 18.386719 104.636719 C 23.921875 110.171875 32.890625 110.171875 38.425781 104.636719 L 54.84375 88.214844 C 60.539062 91.007812 67.242188 91.105469 72.988281 88.460938 Z M 113.824219 47.613281 L 86.605469 74.832031 C 76.015625 85.421875 58.769531 85.421875 48.167969 74.820312 C 47.882812 74.539062 47.601562 74.242188 47.332031 73.949219 C 47.171875 73.8125 47.023438 73.675781 46.875 73.53125 C 46.445312 73.097656 46.089844 72.632812 45.804688 72.128906 C 45.769531 72.078125 45.730469 72.042969 45.707031 71.992188 C 45.707031 71.992188 45.71875 71.980469 45.730469 71.980469 C 44.425781 69.519531 44.808594 66.394531 46.886719 64.328125 C 48.980469 62.238281 52.128906 61.867188 54.585938 63.210938 C 54.757812 63.023438 56.46875 64.734375 57.367188 65.632812 L 57.378906 65.644531 C 62.914062 71.179688 71.84375 71.230469 77.367188 65.695312 L 104.636719 38.425781 C 110.171875 32.890625 110.171875 23.921875 104.636719 18.386719 L 104.636719 18.375 C 99.101562 12.839844 90.132812 12.839844 84.597656 18.375 L 68.167969 34.785156 C 62.484375 32.003906 55.769531 31.894531 50.023438 34.539062 L 75.386719 9.175781 C 85.976562 -1.414062 103.222656 -1.414062 113.824219 9.1875 C 124.414062 19.777344 124.414062 37.023438 113.824219 47.613281 Z M 113.824219 47.613281 "
       id="path18" />
  </g>
</svg>
