<?xml version="1.0" encoding="UTF-8" standalone="no"?>
<svg
   version="1.1"
   id="Layer_1"
   x="0px"
   y="0px"
   width="122.883px"
   height="122.882px"
   viewBox="0 0 122.883 122.882"
   enable-background="new 0 0 122.883 122.882"
   xml:space="preserve"
   sodipodi:docname="up.svg"
   inkscape:version="1.2.2 (732a01da63, 2022-12-09, custom)"
   xmlns:inkscape="http://www.inkscape.org/namespaces/inkscape"
   xmlns:sodipodi="http://sodipodi.sourceforge.net/DTD/sodipodi-0.dtd"
   xmlns="http://www.w3.org/2000/svg"
   xmlns:svg="http://www.w3.org/2000/svg"><defs
     id="defs25" /><sodipodi:namedview
     id="namedview23"
     pagecolor="#ffffff"
     bordercolor="#000000"
     borderopacity="0.25"
     inkscape:showpageshadow="2"
     inkscape:pageopacity="0.0"
     inkscape:pagecheckerboard="0"
     inkscape:deskcolor="#d1d1d1"
     showgrid="false"
     inkscape:zoom="6.9172049"
     inkscape:cx="61.441002"
     inkscape:cy="61.513285"
     inkscape:window-width="1920"
     inkscape:window-height="1016"
     inkscape:window-x="0"
     inkscape:window-y="27"
     inkscape:window-maximized="1"
     inkscape:current-layer="Layer_1" /><g
     id="g20"
     style="fill:#ffffff"><path
       d="M0,61.441L0,61.441h0.018c0,16.976,6.872,32.335,17.98,43.443c11.108,11.107,26.467,17.979,43.441,17.979v0.018h0.001 h0.001v-0.018c16.974,0,32.335-6.872,43.443-17.98s17.98-26.467,17.98-43.441h0.018v-0.001V61.44h-0.018 c0-16.975-6.873-32.334-17.98-43.443C93.775,6.89,78.418,0.018,61.443,0.018V0h-0.002l0,0v0.018 c-16.975,0-32.335,6.872-43.443,17.98C6.89,29.106,0.018,44.465,0.018,61.439H0V61.441L0,61.441z M42.48,71.7 c-1.962,1.908-5.101,1.865-7.009-0.098c-1.909-1.962-1.865-5.101,0.097-7.009l22.521-21.839l3.456,3.553l-3.46-3.569 c1.971-1.911,5.117-1.862,7.029,0.108c0.055,0.058,0.109,0.115,0.16,0.175L87.33,64.594c1.963,1.908,2.006,5.047,0.098,7.009 c-1.908,1.963-5.047,2.006-7.01,0.098L61.53,53.227L42.48,71.7L42.48,71.7z"
       id="path18"
       style="fill:#ffffff" /></g></svg>
